<?xml version="1.0" encoding="UTF-8" standalone="no"?>
<!-- Created with Inkscape (http://www.inkscape.org/) -->

<svg
   width="111mm"
   height="111mm"
   viewBox="0 0 111 111"
   version="1.1"
   id="svg1"
   inkscape:version="1.4.2 (f4327f4, 2025-05-13)"
   sodipodi:docname="icon_yin.svg"
   xml:space="preserve"
   xmlns:inkscape="http://www.inkscape.org/namespaces/inkscape"
   xmlns:sodipodi="http://sodipodi.sourceforge.net/DTD/sodipodi-0.dtd"
   xmlns="http://www.w3.org/2000/svg"
   xmlns:svg="http://www.w3.org/2000/svg"><sodipodi:namedview
     id="namedview1"
     pagecolor="#ffffff"
     bordercolor="#000000"
     borderopacity="0.25"
     inkscape:showpageshadow="2"
     inkscape:pageopacity="0.0"
     inkscape:pagecheckerboard="0"
     inkscape:deskcolor="#d1d1d1"
     inkscape:document-units="mm"
     inkscape:zoom="1.8072765"
     inkscape:cx="187.57506"
     inkscape:cy="229.90394"
     inkscape:window-width="1920"
     inkscape:window-height="1094"
     inkscape:window-x="-11"
     inkscape:window-y="-11"
     inkscape:window-maximized="1"
     inkscape:current-layer="layer3" /><defs
     id="defs1"><filter
       inkscape:collect="always"
       style="color-interpolation-filters:sRGB"
       id="filter1"
       x="-0.01728"
       y="-0.01728"
       width="1.03456"
       height="1.03456"><feGaussianBlur
         inkscape:collect="always"
         stdDeviation="0.79919958"
         id="feGaussianBlur1" /></filter></defs><g
     inkscape:groupmode="layer"
     id="layer3"
     inkscape:label="shadow"
     style="display:inline"><path
       d="M 56.700051,2.1999983 A 55.5,55.5 0 0 0 1.2000789,57.69997 55.5,55.5 0 0 0 56.700051,113.19994 55.5,55.5 0 0 0 112.20002,57.69997 55.5,55.5 0 0 0 56.700051,2.1999983 Z M 47.700083,10.97879 h 9.000484 8.999968 c 2.20915,1.36e-4 4.919075,0.360362 3.999756,2.412773 -0.919319,2.05241 -3.63648,2.355888 -4.439006,2.575553 -1.146449,0.313803 -2.402121,0.58311 -3.462838,1.643828 -1.060724,1.060717 -1.098124,5.368147 -1.098124,5.368147 h 20.000843 c 0,0 1.00192,0.134022 1.43196,-0.329178 0.43005,-0.463199 0.49137,-0.535812 0.62011,-0.903304 0.37738,-1.077235 0.47735,-2.191043 1.51206,-2.940906 0.69853,-0.53611 1.55444,-0.826743 2.43499,-0.826823 h 5.00021 c 2.20915,1.38e-4 3.99991,1.791124 3.99976,4.000272 -2e-4,3.340168 -3.49055,2.490628 -4.9997,3.999756 -1.50932,1.509301 -0.65996,5.000446 -4.00027,5.000212 H 60.700323 v 7.882723 l 31.000173,1.5875 c 2.20895,1.38e-4 3.99963,1.261643 3.99976,3.470589 1.5e-4,2.209148 -1.79061,2.941801 -3.99976,2.941939 H 56.700567 21.70012 c -2.20915,-1.35e-4 -3.999907,-0.732789 -3.999756,-2.941939 1.35e-4,-2.208948 1.790808,-3.470454 3.999756,-3.470589 l 31.000175,-1.5875 V 30.97912 H 26.700331 c -3.340285,2.28e-4 -2.490953,-3.490912 -4.000272,-5.000212 -1.509148,-1.509129 -4.999491,-0.659666 -4.999695,-3.999756 -1.51e-4,-2.20915 1.790606,-4.000137 3.999756,-4.000272 h 5.000211 c 2.777054,1.7e-4 3.737751,1.766305 3.970301,3.686597 0.04709,0.38882 0.349753,0.743395 0.624251,1.002522 0.274498,0.259132 1.406116,0.311092 1.406116,0.311092 h 19.999296 c 0,0 0.109354,-3.941561 -0.951363,-5.002278 -1.060717,-1.060717 -3.012595,-1.807162 -4.048849,-2.072742 -0.967206,-0.247884 -3.331166,-0.611121 -3.999756,-2.512508 -0.66859,-1.901388 1.790606,-2.412638 3.999756,-2.412773 z m 32.422313,42.695585 c 1.99118,0.01517 4.5429,0.248331 6.78511,1.119312 4.48442,1.741962 6.11255,5.298966 6.06165,12.185303 -0.0493,6.669001 -2.34483,10.273829 -5.32991,12.240596 -2.98509,1.966766 -16.939016,1.759583 -16.939016,1.759583 0.0092,1.338424 -0.222098,2.865846 -0.522966,4.051946 -0.300868,1.18611 -0.937675,2.15606 -1.931148,3.16002 -0.993473,1.00395 -1.962108,1.73622 -3.557923,3.30936 0,0 9.752283,6.10426 11.030853,7.18457 1.27857,1.08031 5.06832,3.531495 4.55941,5.134575 -0.50891,1.60309 -5.42146,-0.35628 -8.73125,-1.70481 -10.729713,-4.371685 -18.183545,-6.953875 -22.590352,-9.455235 -2.264602,-1.28542 -3.716442,-3.29427 -4.130497,-3.95945 -1.376398,-2.23501 -2.543201,-4.631078 -2.975529,-7.315833 0,0 -13.621725,0.331722 -16.662549,-1.635042 -3.040824,-1.966765 -5.404423,-5.86015 -5.341793,-12.77028 0.06022,-6.643437 2.425005,-10.32222 6.957198,-12.08195 4.532193,-1.75973 9.896554,-1.035079 9.896554,-1.035079 2.20915,-1.51e-4 4.000137,1.790606 4.000272,3.999756 -0.353871,4.388919 -4.670389,4.119471 -7.999511,4.000272 0,0 -1.09381,0.02449 -1.539441,0.547771 -1.368934,1.895344 -1.981001,8.668523 -0.461471,10.349755 1.51953,1.681231 11.414807,0.219625 11.414807,0.219625 l 0.585494,-9.652641 c 1.35e-4,-2.208948 1.790808,-3.99962 3.999756,-3.999755 2.20915,-1.51e-4 4.000138,1.790605 4.000273,3.999755 0,0 -0.749494,17.45834 1.050582,19.324402 1.800076,1.866064 4.913492,2.366474 7.37526,1.785421 1.19881,-0.282958 2.523447,-1.256587 2.8236,-2.383834 1.462026,-5.490757 0.750342,-18.725989 0.750342,-18.725989 1.35e-4,-2.20915 1.791123,-3.999905 4.000273,-3.999755 2.208948,1.35e-4 3.999621,1.790807 3.999756,3.999755 v 9.652641 c 0,0 9.804396,1.11157 11.195186,-0.658874 1.39079,-1.770444 1.62014,-7.350895 0.21962,-9.909473 -0.47134,-0.471354 -1.41387,-0.548804 -1.41387,-0.548804 -3.2305,0 -7.78371,0.494192 -8.00106,-4.000272 1.4e-4,-2.209151 1.79112,-3.999908 4.00027,-3.999756 0,0 1.43084,-0.202756 3.42202,-0.187586 z"
       style="mix-blend-mode:normal;fill:#d9d9d9;fill-opacity:1;stroke-width:7.96012;stroke-linecap:round;stroke-linejoin:round;filter:url(#filter1)"
       id="path1-2"
       transform="matrix(0.99644861,0,0,1.0000604,-0.19881996,-0.00348631)" /></g><g
     inkscape:groupmode="layer"
     id="layer2"
     inkscape:label="icon"><path
       d="M 55.499999,3e-5 A 55.5,55.5 0 0 0 2.65e-5,55.500002 55.5,55.5 0 0 0 55.499999,110.99997 55.5,55.5 0 0 0 110.99997,55.500002 55.5,55.5 0 0 0 55.499999,3e-5 Z m -8.999968,8.7787923 h 9.000484 8.999968 c 2.209149,1.353e-4 4.919075,0.3603617 3.999756,2.4127727 -0.919319,2.05241 -3.63648,2.355888 -4.439006,2.575553 -1.14645,0.313803 -2.402121,0.58311 -3.462839,1.643828 -1.060723,1.060717 -1.098124,5.368147 -1.098124,5.368147 h 20.000844 c 0,0 1.001919,0.134022 1.43196,-0.329178 0.430049,-0.463199 0.49137,-0.535812 0.62011,-0.903304 0.37738,-1.077235 0.47735,-2.191043 1.51206,-2.940906 0.69853,-0.53611 1.55444,-0.826743 2.43499,-0.826823 h 5.00021 c 2.209149,1.38e-4 3.99991,1.791124 3.999759,4.000272 -2e-4,3.340168 -3.49055,2.490628 -4.9997,3.999756 -1.50932,1.509301 -0.65996,5.000446 -4.00027,5.000212 H 59.50027 v 7.882723 l 31.000174,1.5875 c 2.20895,1.38e-4 3.999629,1.261643 3.999759,3.470589 1.51e-4,2.209148 -1.79061,2.941801 -3.999759,2.941939 H 55.500515 20.500068 c -2.20915,-1.35e-4 -3.999907,-0.732789 -3.999756,-2.941939 1.35e-4,-2.208948 1.790808,-3.470454 3.999756,-3.470589 l 31.000174,-1.5875 V 28.779152 H 25.500279 c -3.340285,2.28e-4 -2.490953,-3.490912 -4.000272,-5.000212 -1.509148,-1.509129 -4.999491,-0.659666 -4.999695,-3.999756 -1.51e-4,-2.20915 1.790606,-4.000137 3.999756,-4.000272 h 5.000211 c 2.777054,1.7e-4 3.737751,1.766305 3.970301,3.686597 0.04709,0.38882 0.349753,0.743395 0.624251,1.002522 0.274498,0.259132 1.406116,0.311092 1.406116,0.311092 h 19.999295 c 0,0 0.109354,-3.941561 -0.951363,-5.002278 C 49.488163,14.716128 47.536284,13.969683 46.50003,13.704103 45.532824,13.456219 43.168864,13.092982 42.500274,11.191595 41.831684,9.2902074 44.29088,8.7789571 46.500031,8.7788223 Z M 78.922344,51.474407 c 1.99118,0.01517 4.5429,0.248331 6.78511,1.119312 4.48442,1.741962 6.11255,5.298966 6.06165,12.185303 -0.0493,6.669001 -2.34483,10.273829 -5.32991,12.240596 -2.98509,1.966766 -16.939016,1.759583 -16.939016,1.759583 0.0092,1.338424 -0.222098,2.865846 -0.522966,4.051949 -0.300868,1.186103 -0.937675,2.156056 -1.931148,3.160014 -0.993473,1.003957 -1.962108,1.736222 -3.557923,3.309358 0,0 9.752283,6.104268 11.030853,7.184575 1.27857,1.080307 5.06832,3.531493 4.55941,5.134573 -0.50891,1.60309 -5.42146,-0.35628 -8.73125,-1.704808 C 59.617441,95.543176 52.163609,92.960988 47.756802,90.459625 45.4922,89.174207 44.04036,87.165356 43.626305,86.500176 c -1.376398,-2.235007 -2.543201,-4.631077 -2.975529,-7.315832 0,0 -13.621725,0.331722 -16.662549,-1.635042 -3.040824,-1.966765 -5.404423,-5.86015 -5.341793,-12.77028 0.06022,-6.643437 2.425005,-10.32222 6.957198,-12.08195 4.532193,-1.75973 9.896554,-1.035079 9.896554,-1.035079 2.20915,-1.51e-4 4.000137,1.790606 4.000272,3.999756 -0.353871,4.388919 -4.670389,4.119471 -7.999511,4.000272 0,0 -1.09381,0.02449 -1.539441,0.547771 -1.368934,1.895344 -1.981001,8.668523 -0.461471,10.349755 1.51953,1.681231 11.414807,0.219625 11.414807,0.219625 l 0.585494,-9.652641 c 1.35e-4,-2.208948 1.790808,-3.99962 3.999756,-3.999755 2.20915,-1.51e-4 4.000138,1.790605 4.000273,3.999755 0,0 -0.749494,17.45834 1.050582,19.324402 1.800076,1.866061 4.913492,2.366477 7.37526,1.785421 1.19881,-0.282958 2.523447,-1.256587 2.8236,-2.383834 1.462026,-5.490757 0.750342,-18.725989 0.750342,-18.725989 1.35e-4,-2.20915 1.791123,-3.999905 4.000273,-3.999755 2.208948,1.35e-4 3.999621,1.790807 3.999756,3.999755 v 9.652641 c 0,0 9.804396,1.11157 11.195186,-0.658874 1.39079,-1.770444 1.62014,-7.350895 0.21962,-9.909473 -0.47134,-0.471354 -1.41387,-0.548804 -1.41387,-0.548804 -3.2305,0 -7.78371,0.494192 -8.00106,-4.000272 1.4e-4,-2.209151 1.79112,-3.999908 4.00027,-3.999756 0,0 1.43084,-0.202756 3.42202,-0.187586 z"
       style="fill:#d00000;fill-opacity:1;stroke-width:7.96012;stroke-linecap:round;stroke-linejoin:round"
       id="path1" /></g></svg>
