<?xml version="1.0" encoding="UTF-8" standalone="no"?>
<!-- Created with Inkscape (http://www.inkscape.org/) -->

<svg
   width="100mm"
   height="100mm"
   viewBox="0 0 100 100"
   version="1.1"
   id="svg1"
   inkscape:version="1.4.2 (f4327f4, 2025-05-13)"
   sodipodi:docname="psi.svg"
   xmlns:inkscape="http://www.inkscape.org/namespaces/inkscape"
   xmlns:sodipodi="http://sodipodi.sourceforge.net/DTD/sodipodi-0.dtd"
   xmlns="http://www.w3.org/2000/svg"
   xmlns:svg="http://www.w3.org/2000/svg"
   xmlns:ns1="http://www.iki.fi/pav/software/textext/">
  <sodipodi:namedview
     id="namedview1"
     pagecolor="#ffffff"
     bordercolor="#000000"
     borderopacity="0.25"
     inkscape:showpageshadow="2"
     inkscape:pageopacity="0.0"
     inkscape:pagecheckerboard="0"
     inkscape:deskcolor="#d1d1d1"
     inkscape:document-units="mm"
     inkscape:zoom="1.4485269"
     inkscape:cx="188.81251"
     inkscape:cy="181.90894"
     inkscape:window-width="1920"
     inkscape:window-height="1094"
     inkscape:window-x="-11"
     inkscape:window-y="-11"
     inkscape:window-maximized="1"
     inkscape:current-layer="layer1" />
  <defs
     id="defs1" />
  <g
     inkscape:label="Layer 1"
     inkscape:groupmode="layer"
     id="layer1"
     transform="translate(0,-80.7343)">
    <g
       id="g732"
       transform="matrix(9.1655227,0,0,9.1655227,19.706229,99.509656)"
       ns1:version="1.12.0"
       ns1:texconverter="pdflatex"
       ns1:pdfconverter="inkscape"
       ns1:text="\\[\\Psi\\]"
       ns1:preamble="C:\Users\goodw\AppData\Roaming\inkscape\extensions\textext\default_packages.tex"
       ns1:scale="3.851136481312904"
       ns1:alignment="middle center"
       ns1:jacobian_sqrt="1.3586">
      <defs
         id="defs8233">
        <g
           id="g9317">
          <g
             id="g1804">
            <path
               d="M 4.25,-6.015625 C 4.25,-6.359375 4.25,-6.5 5.203125,-6.5 H 5.53125 v -0.3125 c -0.359375,0.03125 -1.28125,0.03125 -1.6875,0.03125 -0.40625,0 -1.328125,0 -1.6875,-0.03125 V -6.5 h 0.328125 c 0.9375,0 0.9375,0.125 0.9375,0.484375 V -1.59375 C 2.125,-1.9375 2.078125,-3.484375 2.078125,-4.125 2.0625,-5.328125 1.625,-5.515625 1.1875,-5.515625 h -0.375 c -0.140625,0 -0.25,0 -0.25,0.109375 0,0.046875 0.03125,0.09375 0.09375,0.109375 0.328125,0.03125 0.578125,0.171875 0.59375,1.34375 0,0.234375 0.03125,1.015625 0.5,1.6875 0.390625,0.546875 1,0.828125 1.671875,0.921875 v 0.5625 c 0,0.328125 0,0.46875 -0.9375,0.46875 H 2.15625 V 0 c 0.359375,-0.03125 1.265625,-0.03125 1.6875,-0.03125 0.40625,0 1.328125,0 1.6875,0.03125 V -0.3125 H 5.203125 C 4.25,-0.3125 4.25,-0.4375 4.25,-0.78125 v -0.5625 C 4.96875,-1.4375 5.578125,-1.734375 5.96875,-2.25 6.484375,-2.953125 6.5,-3.75 6.5,-4.1875 c 0,-0.15625 0.015625,-1.046875 0.546875,-1.109375 0.0625,-0.015625 0.125,-0.03125 0.125,-0.109375 0,-0.109375 -0.078125,-0.109375 -0.234375,-0.109375 h -0.375 c -0.390625,0 -0.875,0.0625 -0.890625,1.515625 C 5.65625,-2.90625 5.328125,-1.859375 4.25,-1.59375 Z m 0,0"
               id="path193" />
          </g>
        </g>
      </defs>
      <g
         fill="#000000"
         fill-opacity="1"
         id="g5433"
         transform="translate(-302.312,-139.907)">
        <g
           transform="translate(301.75,146.72)"
           id="g7419">
          <path
             d="M 4.25,-6.015625 C 4.25,-6.359375 4.25,-6.5 5.203125,-6.5 H 5.53125 v -0.3125 c -0.359375,0.03125 -1.28125,0.03125 -1.6875,0.03125 -0.40625,0 -1.328125,0 -1.6875,-0.03125 V -6.5 h 0.328125 c 0.9375,0 0.9375,0.125 0.9375,0.484375 V -1.59375 C 2.125,-1.9375 2.078125,-3.484375 2.078125,-4.125 2.0625,-5.328125 1.625,-5.515625 1.1875,-5.515625 h -0.375 c -0.140625,0 -0.25,0 -0.25,0.109375 0,0.046875 0.03125,0.09375 0.09375,0.109375 0.328125,0.03125 0.578125,0.171875 0.59375,1.34375 0,0.234375 0.03125,1.015625 0.5,1.6875 0.390625,0.546875 1,0.828125 1.671875,0.921875 v 0.5625 c 0,0.328125 0,0.46875 -0.9375,0.46875 H 2.15625 V 0 c 0.359375,-0.03125 1.265625,-0.03125 1.6875,-0.03125 0.40625,0 1.328125,0 1.6875,0.03125 V -0.3125 H 5.203125 C 4.25,-0.3125 4.25,-0.4375 4.25,-0.78125 v -0.5625 C 4.96875,-1.4375 5.578125,-1.734375 5.96875,-2.25 6.484375,-2.953125 6.5,-3.75 6.5,-4.1875 c 0,-0.15625 0.015625,-1.046875 0.546875,-1.109375 0.0625,-0.015625 0.125,-0.03125 0.125,-0.109375 0,-0.109375 -0.078125,-0.109375 -0.234375,-0.109375 h -0.375 c -0.390625,0 -0.875,0.0625 -0.890625,1.515625 C 5.65625,-2.90625 5.328125,-1.859375 4.25,-1.59375 Z m 0,0"
             id="path2704" />
        </g>
      </g>
    </g>
  </g>
</svg>
